<svg xmlns="http://www.w3.org/2000/svg" width="167.076" height="23.059" viewBox="0 0 167.076 23.059">
  <path id="MASS." d="M101.5,23.421c-4.826,0-7.944-2.948-7.944-7.51a8.216,8.216,0,0,1,2.033-5.594,6.716,6.716,0,0,1,5.012-2.2,5.82,5.82,0,0,1,4.539,2.017,8.584,8.584,0,0,1,1.885,5.183v.155H96.754a7.373,7.373,0,0,0,1.8,4.985,6.1,6.1,0,0,0,4.593,1.843,6.3,6.3,0,0,0,5.494-2.9V13.086c0-.437-.09-1.862-1.241-1.862l4.438-3.1V11.6c2.118-2.339,4.027-3.476,5.835-3.476a3.64,3.64,0,0,1,3.033,1.54,5.8,5.8,0,0,1,1.032,3.425v9.435a7.608,7.608,0,0,0,1.427.124,6.607,6.607,0,0,0,3.992-1.245,4.018,4.018,0,0,0,1.687-3.224,4.8,4.8,0,0,0-2.724-3.989,1.246,1.246,0,0,1-.638-1.18,1.232,1.232,0,0,1,.786-1.069,6.914,6.914,0,0,1,2.918,5.494,5.012,5.012,0,0,1-2.072,4.178,8.97,8.97,0,0,1-5.377,1.5H117.3v-.062a2.543,2.543,0,0,0,1.241-2.265v-7.7c0-1.931-.8-3.879-2.576-3.879-1.5,0-2.872,1.268-4.127,2.638v8.938a2.441,2.441,0,0,0,1.3,2.265v.062H107.4v-.062a2.542,2.542,0,0,0,1.241-2.265v-.933A8.1,8.1,0,0,1,101.5,23.421Zm-.931-14.99a3.339,3.339,0,0,0-2.63,2,10.136,10.136,0,0,0-1.187,4.86v.031h7.075a12.066,12.066,0,0,0-.91-4.966C102.332,9.114,101.5,8.431,100.571,8.431Zm-8.92,14.99a1.9,1.9,0,0,1-2.079-1.986,6.463,6.463,0,0,1-4.532,1.986,5.014,5.014,0,0,1-4.147-2.134,9.174,9.174,0,0,1-1.563-5.439c0-4.55,2.387-7.727,5.8-7.727a4.929,4.929,0,0,1,2.673.749,4.388,4.388,0,0,1,1.765,2.262v-5.4c0-.985-.348-1.67-.932-1.831-4.146,2.383-6.428,3.227-8.72,3.227a6.764,6.764,0,0,1-3.334-.768A1.425,1.425,0,0,1,75.857,5a1.443,1.443,0,0,1,.929-1.256,2.787,2.787,0,0,0,.978,2.281,4.255,4.255,0,0,0,2.747.791c2.718,0,5.354-1.456,7.821-2.947L92.768.58v20.3c0,.6.33,1.427.868,1.427.2,0,.525-.129.9-.744H94.6A3.3,3.3,0,0,1,91.651,23.421ZM86.437,8.741a3.249,3.249,0,0,0-2.828,1.878,10.335,10.335,0,0,0-1.082,5.043,11.35,11.35,0,0,0,1.04,5.1,3.114,3.114,0,0,0,2.622,1.978,5.186,5.186,0,0,0,3.383-1.458V11.193C88.65,9.52,87.654,8.741,86.437,8.741Zm-29.56,14.68c-.866,0-3.694-.2-3.694-2.824a4.474,4.474,0,0,1,2.141-3.549,10.846,10.846,0,0,1,6.331-1.664h.559V12.5c0-1.89-.772-4.1-2.948-4.1a3.63,3.63,0,0,0-3.538,3.445,2.073,2.073,0,0,0,.093.652L54.053,9.951a8.537,8.537,0,0,1,5.12-1.831,7.1,7.1,0,0,1,4.272,1.373,4.918,4.918,0,0,1,1.967,4.027v9a7.983,7.983,0,0,0,1.458.155,7.213,7.213,0,0,0,1.845-.236,2.823,2.823,0,0,0,.529-1.657v-7.7c0-.437-.09-1.862-1.241-1.862l4.438-3.1v3.444C73.62,9.993,75.386,8.121,77.1,8.121c1.441,0,1.932,1.615,2.048,2.11l-2.7,2.856a7.668,7.668,0,0,0,.186-1.644c0-1.236-.418-1.862-1.241-1.862-1.089,0-2.3,1.474-2.948,2.265v8.938a2.441,2.441,0,0,0,1.3,2.265v.062H68v-.062a1.922,1.922,0,0,0,.469-.333,11.228,11.228,0,0,1-3.06.4H64.139c-1.4,0-1.924-.48-1.924-1.769C61.445,22.912,58.286,23.421,56.877,23.421Zm5.338-7.945a10.916,10.916,0,0,0-4.066.574,3.232,3.232,0,0,0-2.11,3.274,3.821,3.821,0,0,0,.718,2.394,2.8,2.8,0,0,0,2.323,1.02,3.77,3.77,0,0,0,3.135-1.49ZM43.09,23.421A9.92,9.92,0,0,1,35.9,20.154a12.171,12.171,0,0,1-3.142-8.341,11.855,11.855,0,0,1,3.177-8.3,10.339,10.339,0,0,1,3.33-2.329A9.747,9.747,0,0,1,43.183.362c3.219,0,6.019,1.577,8.727,3.1,2.5,1.405,4.852,2.732,7.348,2.732,1.809,0,3.073-.715,3.073-1.738a1.822,1.822,0,0,0-1.986-1.583,2.313,2.313,0,0,0-1.18.31l.049-.086a1.8,1.8,0,0,1,1.6-.936A1.761,1.761,0,0,1,62.641,3.9v.034c0,1.517-1.454,2.576-3.537,2.576-2.379,0-5.02-1.5-7.574-2.945-2.64-1.5-5.37-3.044-7.912-3.044a6.2,6.2,0,0,0-5.35,3.223,15.587,15.587,0,0,0-1.975,8.135,15.08,15.08,0,0,0,1.99,8.1,6.145,6.145,0,0,0,5.272,3.138A8.389,8.389,0,0,0,48.3,21.4V14.234a2.566,2.566,0,0,0-1.273-2.265v-.062h5.741v.062A2.4,2.4,0,0,0,51.5,14.234V23.11h-.155c-.456-1.125-1.2-1.769-2.048-1.769a1.57,1.57,0,0,0-.527.094A9.135,9.135,0,0,1,43.09,23.421Zm-21.41,0c-4.827,0-7.945-2.948-7.945-7.51a8.215,8.215,0,0,1,2.033-5.594,6.717,6.717,0,0,1,5.012-2.2,5.82,5.82,0,0,1,4.539,2.017A8.584,8.584,0,0,1,27.2,15.321v.155H16.932a7.372,7.372,0,0,0,1.8,4.985A6.1,6.1,0,0,0,23.325,22.3a6.315,6.315,0,0,0,5.194-2.479A9.062,9.062,0,0,0,30.245,14.3c0-3.205-1.427-4.271-2.669-4.841a2.021,2.021,0,0,1,2.809,1.527,14.69,14.69,0,0,1,.171,2.258,11.429,11.429,0,0,1-2.18,7.22,7.534,7.534,0,0,1-2.769,2.168A9.368,9.368,0,0,1,21.68,23.421Zm-.931-14.99a3.339,3.339,0,0,0-2.63,2,10.134,10.134,0,0,0-1.187,4.86v.031h7.076a12.063,12.063,0,0,0-.91-4.966C22.511,9.114,21.677,8.431,20.749,8.431ZM5.892,23.142c-1.73,0-2.917-1.106-3.256-3.034-.718,1.9-1.992,3.034-3.406,3.034-2.067,0-3.352-1.605-3.352-4.19V8.586H-6.014V8.431h.005A4.946,4.946,0,0,0-2.326,6.9,4.841,4.841,0,0,1-5.512,4.521a1.922,1.922,0,0,1,.694-.13A2.068,2.068,0,0,1-3.068,5.4a2.672,2.672,0,0,0,1.145,1,5.078,5.078,0,0,0,.844-2.127h.155V6.717a6.319,6.319,0,0,0,1.153.1A11.328,11.328,0,0,0,5.262,5.431a5.357,5.357,0,0,0,.319-1.158h.155v.917c.829-.432,1.634-.91,2.313-1.32L12.488.58v20.2a2.463,2.463,0,0,0,1.273,2.265v.062H8.05v-.062a2.6,2.6,0,0,0,1.241-2.265v-.658C8.572,22.014,7.3,23.142,5.892,23.142ZM5.737,8.586V18.952c0,1.388.812,2.606,1.738,2.606.671,0,1.316-.614,1.816-1.729V5.731c0-.985-.348-1.67-.931-1.831-.993.571-1.852,1.038-2.623,1.427v3.1H8.871v.155Zm-6.661,0V18.952c0,1.388.812,2.606,1.738,2.606.658,0,1.293-.592,1.788-1.668a6.894,6.894,0,0,1-.062-.939V8.586H-.924Zm0-1.476V8.431H.647A4.805,4.805,0,0,0,5.192,5.6,12.367,12.367,0,0,1-.361,7.127C-.559,7.127-.744,7.121-.924,7.11Zm-5.03,16H-11.7v-.062a2.558,2.558,0,0,0,1.242-2.265v-7.7c0-1.166-.464-1.862-1.242-1.862l4.438-3.259V20.783a2.438,2.438,0,0,0,1.3,2.265v.061Zm-7.295,0H-28.207v-.156a2.485,2.485,0,0,0,1.241-2.172V.983a11.021,11.021,0,0,0-7.883,2.874,9.257,9.257,0,0,0-2.762,6.715,8.6,8.6,0,0,0,3.03,6.692,10.786,10.786,0,0,0,6.126,2.525,4.608,4.608,0,0,1-2.68.855,4.508,4.508,0,0,1-3.151-1.266,11.33,11.33,0,0,1-3.6-8.247A10.356,10.356,0,0,1-35.023,3.8,10.97,10.97,0,0,1-26.966.7H-22.5V.765A2.464,2.464,0,0,0-23.77,3.031V20.783c0,1.279.523,2.172,1.273,2.172h3.445c2.383,0,5.343-2.4,7.2-5.834h.062a19.789,19.789,0,0,0-1.459,5.989ZM-8.965,5.048a2.218,2.218,0,0,1-2.359-2.327A2.21,2.21,0,0,1-8.965.362,2.318,2.318,0,0,1-7.289.994a2.362,2.362,0,0,1,.652,1.727,2.31,2.31,0,0,1-.652,1.688A2.319,2.319,0,0,1-8.965,5.048Z" transform="translate(37.89 -0.362)" fill="#1b1b1b"/>
</svg>
