<svg xmlns="http://www.w3.org/2000/svg" width="17" height="17" viewBox="0 0 17 17">
  <g id="magnifier" transform="translate(0.5 0.5)">
    <path id="Path" d="M3.876,6.876a1,1,0,0,1-.707-.293L-.707,2.707a1,1,0,0,1,0-1.414,1,1,0,0,1,1.414,0L3.876,4.462l.586-.586L1.293.707a1,1,0,0,1,0-1.414,1,1,0,0,1,1.414,0L6.583,3.169a1,1,0,0,1,0,1.414l-2,2A1,1,0,0,1,3.876,6.876Z" transform="translate(9.624 9.624)" fill="#111"/>
    <path id="Oval" d="M6-1A7,7,0,1,1-1,6,7.008,7.008,0,0,1,6-1ZM6,11A5,5,0,1,0,1,6,5.006,5.006,0,0,0,6,11Z" transform="translate(0.5 0.5)" fill="#111"/>
  </g>
</svg>
