<svg xmlns="http://www.w3.org/2000/svg" width="15" height="17" viewBox="0 0 15 17">
  <g id="single-03" transform="translate(0.5 0.5)">
    <path id="Path" d="M6.5,7.5C1.642,7.5-.613,5.3-.707,5.207A1,1,0,0,1-1,4.5,6,6,0,0,1,2.382-.9a1,1,0,0,1,1.336.463A1,1,0,0,1,3.254.9,4.027,4.027,0,0,0,1.026,4.046,9.355,9.355,0,0,0,6.5,5.5a9.355,9.355,0,0,0,5.474-1.453A4.027,4.027,0,0,0,9.745.9,1,1,0,0,1,9.281-.436,1,1,0,0,1,10.617-.9,6,6,0,0,1,14,4.5a1,1,0,0,1-.293.707C13.613,5.3,11.358,7.5,6.5,7.5Z" transform="translate(0.5 9)" fill="#111"/>
    <path id="Path-2" data-name="Path" d="M3.5-1A4.505,4.505,0,0,1,8,3.5,6.381,6.381,0,0,1,6.788,7.058,4.126,4.126,0,0,1,3.5,9,4.126,4.126,0,0,1,.212,7.058,6.381,6.381,0,0,1-1,3.5,4.505,4.505,0,0,1,3.5-1Zm0,8A2.255,2.255,0,0,0,5.162,5.892,4.378,4.378,0,0,0,6,3.5a2.5,2.5,0,0,0-5,0,4.378,4.378,0,0,0,.838,2.392A2.255,2.255,0,0,0,3.5,7Z" transform="translate(3.5 0.5)" fill="#111"/>
  </g>
</svg>
